<svg width="1449" height="1090" viewBox="0 0 1449 1090" fill="none" xmlns="http://www.w3.org/2000/svg">
<rect x="6" y="6" width="1437" height="1077.75" fill="#0029FF"/>
<rect x="1083.75" y="724.5" width="359.25" height="359.25" stroke="#0024DE" stroke-width="10.7775"/>
<rect x="724.5" y="724.5" width="359.25" height="359.25" stroke="#0024DE" stroke-width="10.7775"/>
<rect x="365.25" y="724.5" width="359.25" height="359.25" stroke="#0024DE" stroke-width="10.7775"/>
<rect x="6" y="724.5" width="359.25" height="359.25" stroke="#0024DE" stroke-width="10.7775"/>
<rect x="1083.75" y="365.25" width="359.25" height="359.25" stroke="#0024DE" stroke-width="10.7775"/>
<rect x="724.5" y="365.25" width="359.25" height="359.25" stroke="#0024DE" stroke-width="10.7775"/>
<rect x="365.25" y="365.25" width="359.25" height="359.25" stroke="#0024DE" stroke-width="10.7775"/>
<rect x="6" y="365.25" width="359.25" height="359.25" stroke="#0024DE" stroke-width="10.7775"/>
<rect x="1083.75" y="6" width="359.25" height="359.25" stroke="#0024DE" stroke-width="10.7775"/>
<rect x="724.5" y="6" width="359.25" height="359.25" stroke="#0024DE" stroke-width="10.7775"/>
<rect x="365.25" y="6" width="359.25" height="359.25" stroke="#0024DE" stroke-width="10.7775"/>
<rect x="6" y="6" width="359.25" height="359.25" stroke="#0024DE" stroke-width="10.7775"/>
<path d="M307.218 376.927V413.391H188.189V376.927H307.218ZM203.296 288.632H289.246L342.379 472.254H300.185L251.48 299.05H241.062L192.617 472.254H150.423L203.296 288.632ZM358.035 435.79H394.499V315.72L363.244 317.282V280.819L413.512 278.995C420.805 278.822 426.361 280.645 430.182 284.465C434.175 288.111 436.172 293.581 436.172 300.874V435.79H472.636V472.254H358.035V435.79ZM485.72 435.79H522.184V315.72L490.929 317.282V280.819L541.197 278.995C548.49 278.822 554.046 280.645 557.866 284.465C561.86 288.111 563.857 293.581 563.857 300.874V435.79H600.321V472.254H485.72V435.79ZM842.411 280.819H800.738V348.798L808.551 372.239H798.133C794.139 361.82 788.149 353.573 780.161 347.495C772.348 341.244 761.061 338.119 746.302 338.119C733.974 338.119 723.556 341.158 715.047 347.235C706.539 353.312 700.115 361.56 695.774 371.978C691.433 382.223 689.262 393.683 689.262 406.358C689.262 419.034 691.433 430.581 695.774 440.999C700.115 451.417 706.539 459.665 715.047 465.742C723.729 471.82 734.148 474.858 746.302 474.858C761.061 474.858 772.348 471.82 780.161 465.742C788.149 459.492 794.139 451.157 798.133 440.739H808.551L800.738 464.18V472.254H842.411V280.819ZM800.738 406.358C800.738 413.651 799.348 419.729 796.57 424.59C793.966 429.279 790.059 432.751 784.85 435.009C779.814 437.266 773.476 438.395 765.836 438.395C758.196 438.395 751.772 437.266 746.563 435.009C741.527 432.751 737.62 429.279 734.842 424.59C732.238 419.729 730.935 413.651 730.935 406.358C730.935 399.066 732.238 393.075 734.842 388.387C737.62 383.699 741.527 380.226 746.563 377.969C751.772 375.711 758.196 374.583 765.836 374.583C773.476 374.583 779.814 375.711 784.85 377.969C790.059 380.226 793.966 383.699 796.57 388.387C799.348 393.075 800.738 399.066 800.738 406.358ZM860.695 436.311C860.695 424.677 864.689 415.561 872.676 408.963C880.664 402.191 894.207 397.503 913.308 394.898L954.72 389.168C954.72 383.612 952.55 379.358 948.209 376.406C943.868 373.454 937.269 371.978 928.414 371.978C920.079 371.978 913.655 373.628 909.14 376.927C904.626 380.226 902.368 384.914 902.368 390.992H863.3C863.3 380.226 866.078 370.85 871.635 362.862C877.365 354.875 885.178 348.798 895.076 344.63C904.973 340.289 916.086 338.119 928.414 338.119C941.09 338.119 952.55 340.289 962.794 344.63C973.039 348.798 981.2 355.396 987.277 364.425C993.354 373.454 996.393 384.914 996.393 398.805V435.79H1015.41V472.254H986.496C980.245 472.254 975.383 470.604 971.91 467.305C968.611 463.832 966.962 458.971 966.962 452.72V450.115L973.473 434.488H963.055C960.276 446.99 954.72 456.887 946.385 464.18C938.225 471.299 925.636 474.858 908.619 474.858C896.117 474.858 886.307 472.775 879.188 468.608C872.069 464.267 867.207 459.231 864.602 453.501C861.998 447.771 860.695 442.041 860.695 436.311ZM902.368 428.497C902.368 431.97 903.757 434.488 906.536 436.05C909.314 437.613 912.7 438.395 916.693 438.395C924.334 438.395 931.019 437.353 936.749 435.269C942.479 433.185 946.906 430.234 950.032 426.414C953.157 422.594 954.72 417.992 954.72 412.609L921.121 417.298C914.176 418.339 909.314 419.642 906.536 421.204C903.757 422.594 902.368 425.025 902.368 428.497ZM1131.19 472.254L1063.21 474.858C1056.09 475.032 1050.62 473.209 1046.8 469.389C1042.98 465.569 1041.07 460.012 1041.07 452.72V315.98L1082.74 302.957V438.395L1131.19 435.79V472.254ZM1125.98 340.723V377.187H1009.82V340.723H1125.98ZM1146.84 436.311C1146.84 424.677 1150.83 415.561 1158.82 408.963C1166.81 402.191 1180.35 397.503 1199.45 394.898L1240.87 389.168C1240.87 383.612 1238.7 379.358 1234.35 376.406C1230.01 373.454 1223.42 371.978 1214.56 371.978C1206.23 371.978 1199.8 373.628 1195.29 376.927C1190.77 380.226 1188.51 384.914 1188.51 390.992H1149.45C1149.45 380.226 1152.22 370.85 1157.78 362.862C1163.51 354.875 1171.32 348.798 1181.22 344.63C1191.12 340.289 1202.23 338.119 1214.56 338.119C1227.24 338.119 1238.7 340.289 1248.94 344.63C1259.18 348.798 1267.35 355.396 1273.42 364.425C1279.5 373.454 1282.54 384.914 1282.54 398.805V435.79H1301.55V472.254H1272.64C1266.39 472.254 1261.53 470.604 1258.06 467.305C1254.76 463.832 1253.11 458.971 1253.11 452.72V450.115L1259.62 434.488H1249.2C1246.42 446.99 1240.87 456.887 1232.53 464.18C1224.37 471.299 1211.78 474.858 1194.77 474.858C1182.26 474.858 1172.45 472.775 1165.33 468.608C1158.21 464.267 1153.35 459.231 1150.75 453.501C1148.14 447.771 1146.84 442.041 1146.84 436.311ZM1188.51 428.497C1188.51 431.97 1189.9 434.488 1192.68 436.05C1195.46 437.613 1198.85 438.395 1202.84 438.395C1210.48 438.395 1217.16 437.353 1222.89 435.269C1228.62 433.185 1233.05 430.234 1236.18 426.414C1239.3 422.594 1240.87 417.992 1240.87 412.609L1207.27 417.298C1200.32 418.339 1195.46 419.642 1192.68 421.204C1189.9 422.594 1188.51 425.025 1188.51 428.497ZM148.248 603.701C140.434 603.701 134.357 601.964 130.016 598.492C125.849 594.845 123.765 589.636 123.765 582.864C123.765 576.266 125.935 571.144 130.276 567.497C134.617 563.851 140.608 562.028 148.248 562.028C156.061 562.028 162.139 563.851 166.48 567.497C170.994 571.144 173.252 576.266 173.252 582.864C173.252 589.462 170.994 594.585 166.48 598.231C162.139 601.877 156.061 603.701 148.248 603.701ZM94.3333 711.79H131.579V651.625L99.5424 653.187V616.723L149.029 614.119C156.322 613.772 161.878 615.508 165.698 619.328C169.692 623.148 171.689 628.704 171.689 635.997V711.79H208.934V748.254H94.3333V711.79ZM349.393 712.05C349.393 724.031 344.531 733.495 334.808 740.44C325.258 747.386 309.717 750.858 288.186 750.858C264.745 750.858 247.294 746.518 235.834 737.836C224.548 728.98 218.905 716.565 218.905 700.59H260.578C260.578 706.32 262.835 710.922 267.349 714.395C271.864 717.867 279.244 719.604 289.488 719.604C295.218 719.604 299.646 718.909 302.772 717.52C306.071 715.957 307.72 713.7 307.72 710.748C307.72 708.665 306.939 707.015 305.376 705.8C303.987 704.41 301.817 703.108 298.865 701.893C295.913 700.677 290.964 698.941 284.019 696.684L279.33 695.121L272.559 692.777C262.314 689.651 253.979 686.699 247.555 683.921C241.304 680.969 235.921 676.889 231.407 671.68C227.066 666.297 224.895 659.438 224.895 651.104C224.895 639.47 229.931 630.441 240.002 624.016C250.073 617.418 264.137 614.119 282.196 614.119C303.206 614.119 318.92 618.633 329.338 627.663C339.756 636.518 344.965 647.891 344.965 661.782H303.292C303.292 656.921 301.469 653.014 297.823 650.062C294.176 646.936 288.881 645.374 281.935 645.374C276.9 645.374 273.08 645.981 270.475 647.197C267.87 648.412 266.568 650.322 266.568 652.927C266.568 655.705 268.912 658.223 273.6 660.48C278.289 662.564 286.276 665.342 297.562 668.815C297.91 668.988 298.344 669.162 298.865 669.336C299.386 669.509 299.907 669.683 300.427 669.857C300.948 670.03 301.469 670.204 301.99 670.377C302.511 670.551 302.945 670.725 303.292 670.898C313.884 674.198 322.219 677.323 328.296 680.275C334.374 683.053 339.409 687.047 343.403 692.256C347.396 697.291 349.393 703.89 349.393 712.05ZM443.172 556.819H484.845V624.798L477.031 648.239H487.449C491.443 637.82 497.347 629.573 505.16 623.495C513.148 617.244 524.521 614.119 539.28 614.119C551.608 614.119 562.027 617.158 570.535 623.235C579.043 629.312 585.468 637.56 589.809 647.978C594.15 658.223 596.32 669.683 596.32 682.358C596.32 695.034 594.15 706.581 589.809 716.999C585.468 727.417 578.956 735.665 570.274 741.742C561.766 747.82 551.435 750.858 539.28 750.858C524.521 750.858 513.148 747.82 505.16 741.742C497.347 735.492 491.443 727.157 487.449 716.739H477.031L484.845 740.18V748.254H443.172V556.819ZM484.845 682.358C484.845 689.651 486.147 695.729 488.752 700.59C491.53 705.279 495.437 708.751 500.472 711.009C505.681 713.266 512.106 714.395 519.746 714.395C527.386 714.395 533.724 713.266 538.759 711.009C543.968 708.751 547.875 705.279 550.48 700.59C553.258 695.729 554.647 689.651 554.647 682.358C554.647 675.066 553.258 669.075 550.48 664.387C547.875 659.699 543.968 656.226 538.759 653.969C533.724 651.711 527.386 650.583 519.746 650.583C512.106 650.583 505.681 651.711 500.472 653.969C495.437 656.226 491.53 659.699 488.752 664.387C486.147 669.075 484.845 675.066 484.845 682.358ZM660.767 603.701C652.953 603.701 646.876 601.964 642.535 598.492C638.367 594.845 636.284 589.636 636.284 582.864C636.284 576.266 638.454 571.144 642.795 567.497C647.136 563.851 653.127 562.028 660.767 562.028C668.58 562.028 674.658 563.851 678.999 567.497C683.513 571.144 685.77 576.266 685.77 582.864C685.77 589.462 683.513 594.585 678.999 598.231C674.658 601.877 668.58 603.701 660.767 603.701ZM606.852 711.79H644.097V651.625L612.061 653.187V616.723L661.548 614.119C668.841 613.772 674.397 615.508 678.217 619.328C682.211 623.148 684.208 628.704 684.208 635.997V711.79H721.453V748.254H606.852V711.79ZM734.283 712.311C734.283 700.677 738.276 691.561 746.263 684.963C754.251 678.191 767.795 673.503 786.895 670.898L828.307 665.168C828.307 659.612 826.137 655.358 821.796 652.406C817.455 649.454 810.857 647.978 802.001 647.978C793.667 647.978 787.242 649.628 782.727 652.927C778.213 656.226 775.956 660.914 775.956 666.992H736.887C736.887 656.226 739.665 646.85 745.222 638.862C750.952 630.875 758.765 624.798 768.663 620.63C778.56 616.289 789.673 614.119 802.001 614.119C814.677 614.119 826.137 616.289 836.381 620.63C846.626 624.798 854.787 631.396 860.864 640.425C866.942 649.454 869.98 660.914 869.98 674.805V711.79H888.994V748.254H860.083C853.832 748.254 848.97 746.604 845.497 743.305C842.198 739.832 840.549 734.971 840.549 728.72V726.115L847.06 710.488H836.642C833.864 722.99 828.307 732.887 819.973 740.18C811.812 747.299 799.223 750.858 782.206 750.858C769.705 750.858 759.894 748.775 752.775 744.608C745.656 740.267 740.794 735.231 738.189 729.501C735.585 723.771 734.283 718.041 734.283 712.311ZM775.956 704.497C775.956 707.97 777.345 710.488 780.123 712.05C782.901 713.613 786.287 714.395 790.281 714.395C797.921 714.395 804.606 713.353 810.336 711.269C816.066 709.185 820.494 706.234 823.619 702.414C826.744 698.594 828.307 693.992 828.307 688.609L794.708 693.298C787.763 694.339 782.901 695.642 780.123 697.204C777.345 698.594 775.956 701.025 775.956 704.497ZM1026.99 712.05C1026.99 724.031 1022.12 733.495 1012.4 740.44C1002.85 747.386 987.31 750.858 965.779 750.858C942.338 750.858 924.888 746.518 913.428 737.836C902.141 728.98 896.498 716.565 896.498 700.59H938.171C938.171 706.32 940.428 710.922 944.943 714.395C949.457 717.867 956.837 719.604 967.082 719.604C972.812 719.604 977.239 718.909 980.365 717.52C983.664 715.957 985.313 713.7 985.313 710.748C985.313 708.665 984.532 707.015 982.969 705.8C981.58 704.41 979.41 703.108 976.458 701.893C973.506 700.677 968.557 698.941 961.612 696.684L956.924 695.121L950.152 692.777C939.907 689.651 931.573 686.699 925.148 683.921C918.897 680.969 913.514 676.889 909 671.68C904.659 666.297 902.488 659.438 902.488 651.104C902.488 639.47 907.524 630.441 917.595 624.016C927.666 617.418 941.73 614.119 959.789 614.119C980.799 614.119 996.513 618.633 1006.93 627.663C1017.35 636.518 1022.56 647.891 1022.56 661.782H980.886C980.886 656.921 979.063 653.014 975.416 650.062C971.77 646.936 966.474 645.374 959.528 645.374C954.493 645.374 950.673 645.981 948.068 647.197C945.464 648.412 944.161 650.322 944.161 652.927C944.161 655.705 946.505 658.223 951.194 660.48C955.882 662.564 963.869 665.342 975.156 668.815C975.503 668.988 975.937 669.162 976.458 669.336C976.979 669.509 977.5 669.683 978.021 669.857C978.542 670.03 979.063 670.204 979.583 670.377C980.104 670.551 980.538 670.725 980.886 670.898C991.478 674.198 999.812 677.323 1005.89 680.275C1011.97 683.053 1017 687.047 1021 692.256C1024.99 697.291 1026.99 703.89 1026.99 712.05ZM1039.76 680.796C1039.76 667.078 1042.62 655.271 1048.35 645.374C1054.26 635.303 1062.42 627.576 1072.84 622.193C1083.43 616.81 1095.5 614.119 1109.04 614.119C1122.58 614.119 1134.57 616.723 1144.98 621.933C1155.58 627.142 1163.82 634.608 1169.73 644.332C1175.63 653.882 1178.58 665.168 1178.58 678.191V691.214H1078.83C1078.83 699.028 1081.69 705.279 1087.42 709.967C1093.33 714.655 1102.01 716.999 1113.47 716.999C1120.93 716.999 1127.19 715.697 1132.22 713.092C1137.26 710.488 1140.38 706.755 1141.6 701.893H1183.27C1182.23 709.012 1178.93 716.391 1173.37 724.031C1167.99 731.498 1160.18 737.836 1149.93 743.045C1139.69 748.254 1127.53 750.858 1113.47 750.858C1097.32 750.858 1083.69 747.733 1072.58 741.482C1061.46 735.057 1053.22 726.549 1047.83 715.957C1042.45 705.365 1039.76 693.645 1039.76 680.796ZM1139.51 667.773C1139.51 662.217 1137.08 657.528 1132.22 653.708C1127.53 649.888 1119.81 647.978 1109.04 647.978C1101.75 647.978 1095.84 648.933 1091.33 650.843C1086.81 652.58 1083.6 654.924 1081.69 657.876C1079.78 660.827 1078.83 664.127 1078.83 667.773H1139.51ZM1349.33 556.819H1307.66V624.798L1315.47 648.239H1305.06C1301.06 637.82 1295.07 629.573 1287.08 623.495C1279.27 617.244 1267.98 614.119 1253.23 614.119C1240.9 614.119 1230.48 617.158 1221.97 623.235C1213.46 629.312 1207.04 637.56 1202.7 647.978C1198.36 658.223 1196.19 669.683 1196.19 682.358C1196.19 695.034 1198.36 706.581 1202.7 716.999C1207.04 727.417 1213.46 735.665 1221.97 741.742C1230.65 747.82 1241.07 750.858 1253.23 750.858C1267.98 750.858 1279.27 747.82 1287.08 741.742C1295.07 735.492 1301.06 727.157 1305.06 716.739H1315.47L1307.66 740.18V748.254H1349.33V556.819ZM1307.66 682.358C1307.66 689.651 1306.27 695.729 1303.49 700.59C1300.89 705.279 1296.98 708.751 1291.77 711.009C1286.74 713.266 1280.4 714.395 1272.76 714.395C1265.12 714.395 1258.69 713.266 1253.49 711.009C1248.45 708.751 1244.54 705.279 1241.77 700.59C1239.16 695.729 1237.86 689.651 1237.86 682.358C1237.86 675.066 1239.16 669.075 1241.77 664.387C1244.54 659.699 1248.45 656.226 1253.49 653.969C1258.69 651.711 1265.12 650.583 1272.76 650.583C1280.4 650.583 1286.74 651.711 1291.77 653.969C1296.98 656.226 1300.89 659.699 1303.49 664.387C1306.27 669.075 1307.66 675.066 1307.66 682.358Z" fill="#37E17B"/>
</svg>
