<svg width="1444" height="1086" viewBox="0 0 1444 1086" fill="none" xmlns="http://www.w3.org/2000/svg">
<rect x="10.4761" y="6" width="1432.52" height="1074.39" fill="#FFDD00"/>
<rect x="1080.39" y="722.264" width="358.131" height="358.131" stroke="#FFC700" stroke-width="10.7439"/>
<rect x="1080.39" y="6" width="358.131" height="358.131" stroke="#FFC700" stroke-width="10.7439"/>
<rect x="1080.39" y="364.133" width="358.131" height="358.131" stroke="#FFC700" stroke-width="10.7439"/>
<rect x="6" y="722.264" width="358.131" height="358.131" stroke="#FFC700" stroke-width="10.7439"/>
<rect x="722.262" y="722.264" width="358.131" height="358.131" stroke="#FFC700" stroke-width="10.7439"/>
<rect x="6" y="6" width="358.131" height="358.131" stroke="#FFC700" stroke-width="10.7439"/>
<rect x="722.262" y="6" width="358.131" height="358.131" stroke="#FFC700" stroke-width="10.7439"/>
<rect x="364.131" y="722.264" width="358.131" height="358.131" stroke="#FFC700" stroke-width="10.7439"/>
<rect x="364.131" y="6" width="358.131" height="358.131" stroke="#FFC700" stroke-width="10.7439"/>
<rect x="6" y="364.133" width="358.131" height="358.131" stroke="#FFC700" stroke-width="10.7439"/>
<rect x="722.262" y="364.133" width="358.131" height="358.131" stroke="#FFC700" stroke-width="10.7439"/>
<rect x="364.131" y="364.133" width="358.131" height="358.131" stroke="#FFC700" stroke-width="10.7439"/>
<path d="M241.973 393.799V218.816H324.701C332.89 218.816 340.244 220.237 346.762 223.078C353.28 225.752 358.795 229.512 363.307 234.359C367.987 239.206 371.58 245.139 374.087 252.158C376.594 259.01 377.848 266.531 377.848 274.72C377.848 283.077 376.594 290.681 374.087 297.533C371.58 304.385 367.987 310.235 363.307 315.082C358.795 319.928 353.28 323.772 346.762 326.613C340.244 329.288 332.89 330.625 324.701 330.625H280.078V393.799H241.973ZM280.078 297.533H320.188C325.871 297.533 330.3 296.113 333.475 293.272C336.818 290.263 338.489 285.918 338.489 280.236V269.205C338.489 263.523 336.818 259.261 333.475 256.42C330.3 253.412 325.871 251.907 320.188 251.907H280.078V297.533ZM454.489 396.807C444.461 396.807 435.52 395.219 427.665 392.044C419.81 388.701 413.125 384.105 407.609 378.256C402.261 372.239 398.167 364.969 395.325 356.446C392.651 347.922 391.314 338.396 391.314 327.867C391.314 317.505 392.651 308.146 395.325 299.789C397.999 291.266 401.927 283.996 407.108 277.979C412.456 271.963 418.974 267.367 426.662 264.191C434.35 260.849 443.124 259.177 452.984 259.177C463.848 259.177 473.123 261.016 480.811 264.693C488.666 268.369 495.017 273.3 499.864 279.483C504.878 285.667 508.471 292.854 510.644 301.043C512.983 309.065 514.153 317.505 514.153 326.363V337.393H429.67V339.399C429.67 348.089 432.01 355.025 436.69 360.206C441.369 365.22 448.723 367.727 458.75 367.727C466.438 367.727 472.706 366.223 477.552 363.214C482.399 360.039 486.911 356.279 491.09 351.933L509.641 374.997C503.791 381.849 496.103 387.197 486.577 391.041C477.218 394.885 466.522 396.807 454.489 396.807ZM453.737 286.503C446.216 286.503 440.283 289.01 435.937 294.024C431.759 298.87 429.67 305.388 429.67 313.578V315.583H475.797V313.327C475.797 305.305 473.959 298.87 470.282 294.024C466.773 289.01 461.257 286.503 453.737 286.503ZM593.754 396.807C584.06 396.807 575.37 395.219 567.682 392.044C560.161 388.869 553.727 384.273 548.379 378.256C543.198 372.239 539.186 364.969 536.345 356.446C533.504 347.922 532.084 338.396 532.084 327.867C532.084 317.338 533.504 307.812 536.345 299.288C539.186 290.765 543.198 283.578 548.379 277.729C553.727 271.712 560.161 267.116 567.682 263.941C575.37 260.765 584.06 259.177 593.754 259.177C603.447 259.177 612.054 260.765 619.575 263.941C627.263 267.116 633.697 271.712 638.878 277.729C644.226 283.578 648.321 290.765 651.162 299.288C654.003 307.812 655.424 317.338 655.424 327.867C655.424 338.396 654.003 347.922 651.162 356.446C648.321 364.969 644.226 372.239 638.878 378.256C633.697 384.273 627.263 388.869 619.575 392.044C612.054 395.219 603.447 396.807 593.754 396.807ZM593.754 367.476C601.107 367.476 606.79 365.22 610.801 360.708C614.812 356.195 616.817 349.761 616.817 341.404V314.58C616.817 306.224 614.812 299.789 610.801 295.277C606.79 290.765 601.107 288.508 593.754 288.508C586.4 288.508 580.718 290.765 576.707 295.277C572.696 299.789 570.69 306.224 570.69 314.58V341.404C570.69 349.761 572.696 356.195 576.707 360.708C580.718 365.22 586.4 367.476 593.754 367.476ZM681.86 262.186H718.962V284.247H720.216C722.054 276.893 726.232 270.876 732.75 266.197C739.436 261.517 747.04 259.177 755.563 259.177C772.276 259.177 784.894 265.027 793.418 276.726C801.941 288.425 806.203 305.472 806.203 327.867C806.203 350.262 801.941 367.393 793.418 379.259C784.894 390.958 772.276 396.807 755.563 396.807C751.218 396.807 747.123 396.139 743.279 394.802C739.436 393.632 735.926 391.96 732.75 389.788C729.742 387.448 727.152 384.774 724.979 381.766C722.806 378.59 721.219 375.248 720.216 371.738H718.962V443.937H681.86V262.186ZM743.279 366.724C750.299 366.724 756.065 364.301 760.577 359.454C765.257 354.44 767.597 347.755 767.597 339.399V316.586C767.597 308.229 765.257 301.628 760.577 296.781C756.065 291.767 750.299 289.26 743.279 289.26C736.26 289.26 730.411 291.015 725.731 294.525C721.219 297.868 718.962 302.547 718.962 308.564V347.421C718.962 353.437 721.219 358.201 725.731 361.71C730.411 365.053 736.26 366.724 743.279 366.724ZM871.232 393.799C858.53 393.799 849.171 390.707 843.155 384.523C837.305 378.34 834.38 369.398 834.38 357.699V208.287H871.483V364.969H888.028V393.799H871.232ZM965.175 396.807C955.147 396.807 946.206 395.219 938.351 392.044C930.496 388.701 923.811 384.105 918.295 378.256C912.947 372.239 908.853 364.969 906.012 356.446C903.338 347.922 902 338.396 902 327.867C902 317.505 903.338 308.146 906.012 299.789C908.686 291.266 912.613 283.996 917.794 277.979C923.142 271.963 929.66 267.367 937.348 264.191C945.036 260.849 953.81 259.177 963.671 259.177C974.534 259.177 983.81 261.016 991.497 264.693C999.352 268.369 1005.7 273.3 1010.55 279.483C1015.56 285.667 1019.16 292.854 1021.33 301.043C1023.67 309.065 1024.84 317.505 1024.84 326.363V337.393H940.356V339.399C940.356 348.089 942.696 355.025 947.376 360.206C952.055 365.22 959.409 367.727 969.437 367.727C977.124 367.727 983.392 366.223 988.238 363.214C993.085 360.039 997.598 356.279 1001.78 351.933L1020.33 374.997C1014.48 381.849 1006.79 387.197 997.263 391.041C987.904 394.885 977.208 396.807 965.175 396.807ZM964.423 286.503C956.902 286.503 950.969 289.01 946.624 294.024C942.445 298.87 940.356 305.388 940.356 313.578V315.583H986.484V313.327C986.484 305.305 984.645 298.87 980.968 294.024C977.459 289.01 971.943 286.503 964.423 286.503ZM1068.93 396.556C1061.41 396.556 1055.81 394.718 1052.13 391.041C1048.62 387.197 1046.87 382.351 1046.87 376.501V371.487C1046.87 365.638 1048.62 360.875 1052.13 357.198C1055.81 353.354 1061.41 351.432 1068.93 351.432C1076.45 351.432 1081.97 353.354 1085.48 357.198C1089.15 360.875 1090.99 365.638 1090.99 371.487V376.501C1090.99 382.351 1089.15 387.197 1085.48 391.041C1081.97 394.718 1076.45 396.556 1068.93 396.556ZM241.973 636.799V461.816H324.701C332.89 461.816 340.244 463.237 346.762 466.078C353.28 468.752 358.795 472.512 363.307 477.359C367.987 482.206 371.58 488.139 374.087 495.158C376.594 502.01 377.848 509.531 377.848 517.72C377.848 526.077 376.594 533.681 374.087 540.533C371.58 547.385 367.987 553.235 363.307 558.082C358.795 562.928 353.28 566.772 346.762 569.613C340.244 572.288 332.89 573.625 324.701 573.625H280.078V636.799H241.973ZM280.078 540.533H320.188C325.871 540.533 330.3 539.113 333.475 536.272C336.818 533.263 338.489 528.918 338.489 523.236V512.205C338.489 506.523 336.818 502.261 333.475 499.42C330.3 496.412 325.871 494.907 320.188 494.907H280.078V540.533ZM498.08 636.799C491.394 636.799 485.796 634.71 481.283 630.532C476.938 626.353 474.18 620.755 473.01 613.735H471.506C469.501 622.259 465.072 628.777 458.22 633.289C451.367 637.634 442.927 639.807 432.9 639.807C419.697 639.807 409.585 636.297 402.566 629.278C395.547 622.259 392.037 612.983 392.037 601.451C392.037 587.58 397.051 577.301 407.079 570.616C417.273 563.764 431.061 560.338 448.443 560.338H469.25V552.065C469.25 545.714 467.579 540.7 464.236 537.024C460.894 533.18 455.295 531.258 447.44 531.258C440.086 531.258 434.237 532.845 429.891 536.021C425.546 539.196 421.953 542.789 419.112 546.801L397.051 527.247C402.399 519.392 409.084 513.291 417.106 508.946C425.295 504.434 436.326 502.177 450.197 502.177C468.916 502.177 482.955 506.272 492.314 514.461C501.673 522.651 506.352 534.6 506.352 550.31V607.969H518.636V636.799H498.08ZM446.688 613.986C452.872 613.986 458.136 612.649 462.481 609.975C466.994 607.301 469.25 602.955 469.25 596.939V581.396H451.2C436.66 581.396 429.39 586.326 429.39 596.187V599.947C429.39 604.794 430.894 608.387 433.903 610.727C436.911 612.9 441.173 613.986 446.688 613.986ZM588.162 639.807C575.46 639.807 564.764 637.802 556.074 633.791C547.383 629.612 539.611 623.763 532.759 616.242L554.569 594.181C559.249 599.362 564.43 603.457 570.112 606.465C575.795 609.473 582.229 610.978 589.416 610.978C596.769 610.978 601.867 609.891 604.708 607.719C607.549 605.379 608.969 602.287 608.969 598.443C608.969 592.259 604.541 588.582 595.683 587.413L581.393 585.658C551.812 581.981 537.021 568.444 537.021 545.046C537.021 538.695 538.191 532.929 540.531 527.748C543.038 522.4 546.464 517.887 550.809 514.211C555.321 510.367 560.67 507.442 566.853 505.436C573.204 503.264 580.307 502.177 588.162 502.177C595.014 502.177 601.031 502.679 606.212 503.682C611.56 504.517 616.24 505.854 620.251 507.693C624.429 509.364 628.189 511.537 631.532 514.211C635.041 516.718 638.468 519.559 641.81 522.734L620.501 544.544C616.323 540.366 611.56 537.107 606.212 534.767C601.031 532.26 595.683 531.007 590.168 531.007C583.817 531.007 579.304 532.01 576.63 534.015C573.956 536.021 572.619 538.695 572.619 542.037C572.619 545.547 573.538 548.305 575.377 550.31C577.382 552.149 581.059 553.486 586.407 554.321L601.198 556.327C630.111 560.171 644.568 573.374 644.568 595.936C644.568 602.287 643.231 608.136 640.557 613.485C637.883 618.833 634.039 623.512 629.025 627.523C624.178 631.367 618.245 634.375 611.226 636.548C604.373 638.721 596.686 639.807 588.162 639.807ZM712.773 639.807C700.072 639.807 689.376 637.802 680.685 633.791C671.994 629.612 664.223 623.763 657.371 616.242L679.181 594.181C683.86 599.362 689.041 603.457 694.724 606.465C700.406 609.473 706.84 610.978 714.027 610.978C721.38 610.978 726.478 609.891 729.319 607.719C732.16 605.379 733.581 602.287 733.581 598.443C733.581 592.259 729.152 588.582 720.294 587.413L706.005 585.658C676.423 581.981 661.632 568.444 661.632 545.046C661.632 538.695 662.802 532.929 665.142 527.748C667.649 522.4 671.075 517.887 675.42 514.211C679.933 510.367 685.281 507.442 691.465 505.436C697.815 503.264 704.918 502.177 712.773 502.177C719.626 502.177 725.642 502.679 730.823 503.682C736.171 504.517 740.851 505.854 744.862 507.693C749.04 509.364 752.801 511.537 756.143 514.211C759.653 516.718 763.079 519.559 766.421 522.734L745.113 544.544C740.934 540.366 736.171 537.107 730.823 534.767C725.642 532.26 720.294 531.007 714.779 531.007C708.428 531.007 703.916 532.01 701.242 534.015C698.568 536.021 697.231 538.695 697.231 542.037C697.231 545.547 698.15 548.305 699.988 550.31C701.994 552.149 705.67 553.486 711.019 554.321L725.809 556.327C754.722 560.171 769.179 573.374 769.179 595.936C769.179 602.287 767.842 608.136 765.168 613.485C762.494 618.833 758.65 623.512 753.636 627.523C748.789 631.367 742.856 634.375 735.837 636.548C728.985 638.721 721.297 639.807 712.773 639.807ZM813.027 491.147C805.506 491.147 799.991 489.476 796.481 486.133C793.138 482.624 791.467 478.195 791.467 472.847V467.331C791.467 461.983 793.138 457.638 796.481 454.295C799.991 450.786 805.506 449.031 813.027 449.031C820.547 449.031 825.979 450.786 829.321 454.295C832.831 457.638 834.586 461.983 834.586 467.331V472.847C834.586 478.195 832.831 482.624 829.321 486.133C825.979 489.476 820.547 491.147 813.027 491.147ZM794.475 505.186H831.578V636.799H794.475V505.186ZM919.604 639.807C909.91 639.807 901.22 638.219 893.532 635.044C886.011 631.869 879.577 627.273 874.229 621.256C869.048 615.239 865.037 607.969 862.195 599.446C859.354 590.922 857.934 581.396 857.934 570.867C857.934 560.338 859.354 550.812 862.195 542.288C865.037 533.765 869.048 526.578 874.229 520.729C879.577 514.712 886.011 510.116 893.532 506.941C901.22 503.765 909.91 502.177 919.604 502.177C929.297 502.177 937.904 503.765 945.425 506.941C953.113 510.116 959.547 514.712 964.728 520.729C970.076 526.578 974.171 533.765 977.012 542.288C979.853 550.812 981.274 560.338 981.274 570.867C981.274 581.396 979.853 590.922 977.012 599.446C974.171 607.969 970.076 615.239 964.728 621.256C959.547 627.273 953.113 631.869 945.425 635.044C937.904 638.219 929.297 639.807 919.604 639.807ZM919.604 610.476C926.957 610.476 932.64 608.22 936.651 603.708C940.662 599.195 942.667 592.761 942.667 584.404V557.58C942.667 549.224 940.662 542.789 936.651 538.277C932.64 533.765 926.957 531.508 919.604 531.508C912.25 531.508 906.568 533.765 902.557 538.277C898.546 542.789 896.54 549.224 896.54 557.58V584.404C896.54 592.761 898.546 599.195 902.557 603.708C906.568 608.22 912.25 610.476 919.604 610.476ZM1007.71 636.799V505.186H1044.81V527.497H1046.32C1048.66 520.645 1052.75 514.712 1058.6 509.698C1064.45 504.684 1072.56 502.177 1082.92 502.177C1096.45 502.177 1106.65 506.69 1113.5 515.715C1120.52 524.74 1124.03 537.609 1124.03 554.321V636.799H1086.93V557.33C1086.93 548.806 1085.59 542.539 1082.92 538.528C1080.24 534.35 1075.48 532.26 1068.63 532.26C1065.62 532.26 1062.7 532.678 1059.85 533.514C1057.01 534.182 1054.42 535.352 1052.08 537.024C1049.91 538.695 1048.15 540.784 1046.82 543.291C1045.48 545.631 1044.81 548.388 1044.81 551.564V636.799H1007.71ZM1178.61 639.556C1171.09 639.556 1165.49 637.718 1161.81 634.041C1158.3 630.197 1156.55 625.351 1156.55 619.501V614.487C1156.55 608.638 1158.3 603.875 1161.81 600.198C1165.49 596.354 1171.09 594.432 1178.61 594.432C1186.13 594.432 1191.64 596.354 1195.15 600.198C1198.83 603.875 1200.67 608.638 1200.67 614.487V619.501C1200.67 625.351 1198.83 630.197 1195.15 634.041C1191.64 637.718 1186.13 639.556 1178.61 639.556ZM241.973 879.799V704.816H324.701C332.89 704.816 340.244 706.237 346.762 709.078C353.28 711.752 358.795 715.512 363.307 720.359C367.987 725.206 371.58 731.139 374.087 738.158C376.594 745.01 377.848 752.531 377.848 760.72C377.848 769.077 376.594 776.681 374.087 783.533C371.58 790.385 367.987 796.235 363.307 801.082C358.795 805.928 353.28 809.772 346.762 812.613C340.244 815.288 332.89 816.625 324.701 816.625H280.078V879.799H241.973ZM280.078 783.533H320.188C325.871 783.533 330.3 782.113 333.475 779.272C336.818 776.263 338.489 771.918 338.489 766.236V755.205C338.489 749.523 336.818 745.261 333.475 742.42C330.3 739.412 325.871 737.907 320.188 737.907H280.078V783.533ZM482.198 857.738H480.944C479.775 861.081 478.187 864.256 476.181 867.264C474.343 870.273 471.92 872.947 468.911 875.286C465.903 877.626 462.31 879.465 458.131 880.802C454.12 882.139 449.441 882.807 444.093 882.807C430.555 882.807 420.277 878.378 413.258 869.52C406.405 860.496 402.979 847.627 402.979 830.914V748.186H440.082V827.655C440.082 835.677 441.502 841.861 444.343 846.206C447.185 850.551 452.031 852.724 458.884 852.724C461.725 852.724 464.566 852.306 467.407 851.471C470.248 850.635 472.755 849.465 474.928 847.961C477.1 846.29 478.855 844.284 480.192 841.944C481.529 839.605 482.198 836.847 482.198 833.672V748.186H519.3V879.799H482.198V857.738ZM553.821 879.799V748.186H590.924V776.765H592.177C592.846 773.088 594.015 769.578 595.687 766.236C597.358 762.726 599.531 759.634 602.205 756.96C605.046 754.286 608.388 752.197 612.232 750.693C616.076 749.021 620.589 748.186 625.77 748.186H632.288V782.781H623.012C612.149 782.781 604.043 784.202 598.695 787.043C593.514 789.884 590.924 795.149 590.924 802.837V879.799H553.821ZM655.175 748.186H692.277V770.247H693.531C695.369 762.893 699.547 756.876 706.065 752.197C712.751 747.517 720.355 745.177 728.878 745.177C745.591 745.177 758.209 751.027 766.733 762.726C775.256 774.425 779.518 791.472 779.518 813.867C779.518 836.262 775.256 853.393 766.733 865.259C758.209 876.958 745.591 882.807 728.878 882.807C724.533 882.807 720.438 882.139 716.595 880.802C712.751 879.632 709.241 877.96 706.065 875.788C703.057 873.448 700.467 870.774 698.294 867.766C696.121 864.59 694.534 861.248 693.531 857.738H692.277V929.937H655.175V748.186ZM716.595 852.724C723.614 852.724 729.38 850.301 733.892 845.454C738.572 840.44 740.912 833.755 740.912 825.399V802.586C740.912 794.229 738.572 787.628 733.892 782.781C729.38 777.767 723.614 775.26 716.595 775.26C709.575 775.26 703.726 777.015 699.046 780.525C694.534 783.868 692.277 788.547 692.277 794.564V833.421C692.277 839.437 694.534 844.201 699.046 847.71C703.726 851.053 709.575 852.724 716.595 852.724ZM861.093 882.807C851.399 882.807 842.709 881.219 835.021 878.044C827.5 874.869 821.066 870.273 815.718 864.256C810.537 858.239 806.526 850.969 803.684 842.446C800.843 833.922 799.423 824.396 799.423 813.867C799.423 803.338 800.843 793.812 803.684 785.288C806.526 776.765 810.537 769.578 815.718 763.729C821.066 757.712 827.5 753.116 835.021 749.941C842.709 746.765 851.399 745.177 861.093 745.177C870.786 745.177 879.393 746.765 886.914 749.941C894.602 753.116 901.036 757.712 906.217 763.729C911.565 769.578 915.66 776.765 918.501 785.288C921.342 793.812 922.763 803.338 922.763 813.867C922.763 824.396 921.342 833.922 918.501 842.446C915.66 850.969 911.565 858.239 906.217 864.256C901.036 870.273 894.602 874.869 886.914 878.044C879.393 881.219 870.786 882.807 861.093 882.807ZM861.093 853.476C868.446 853.476 874.129 851.22 878.14 846.708C882.151 842.195 884.156 835.761 884.156 827.404V800.58C884.156 792.224 882.151 785.789 878.14 781.277C874.129 776.765 868.446 774.508 861.093 774.508C853.739 774.508 848.057 776.765 844.046 781.277C840.035 785.789 838.029 792.224 838.029 800.58V827.404C838.029 835.761 840.035 842.195 844.046 846.708C848.057 851.22 853.739 853.476 861.093 853.476ZM993.822 882.807C981.12 882.807 970.424 880.802 961.734 876.791C953.043 872.612 945.272 866.763 938.419 859.242L960.23 837.181C964.909 842.362 970.09 846.457 975.772 849.465C981.455 852.473 987.889 853.978 995.076 853.978C1002.43 853.978 1007.53 852.891 1010.37 850.719C1013.21 848.379 1014.63 845.287 1014.63 841.443C1014.63 835.259 1010.2 831.582 1001.34 830.413L987.054 828.658C957.472 824.981 942.681 811.444 942.681 788.046C942.681 781.695 943.851 775.929 946.191 770.748C948.698 765.4 952.124 760.887 956.469 757.211C960.982 753.367 966.33 750.442 972.513 748.436C978.864 746.264 985.967 745.177 993.822 745.177C1000.67 745.177 1006.69 745.679 1011.87 746.682C1017.22 747.517 1021.9 748.854 1025.91 750.693C1030.09 752.364 1033.85 754.537 1037.19 757.211C1040.7 759.718 1044.13 762.559 1047.47 765.734L1026.16 787.544C1021.98 783.366 1017.22 780.107 1011.87 777.767C1006.69 775.26 1001.34 774.007 995.828 774.007C989.477 774.007 984.964 775.01 982.29 777.015C979.616 779.021 978.279 781.695 978.279 785.037C978.279 788.547 979.199 791.305 981.037 793.31C983.042 795.149 986.719 796.486 992.067 797.321L1006.86 799.327C1035.77 803.171 1050.23 816.374 1050.23 838.936C1050.23 845.287 1048.89 851.136 1046.22 856.485C1043.54 861.833 1039.7 866.512 1034.68 870.523C1029.84 874.367 1023.91 877.375 1016.89 879.548C1010.03 881.721 1002.35 882.807 993.822 882.807ZM1130.43 882.807C1120.4 882.807 1111.46 881.219 1103.6 878.044C1095.75 874.701 1089.06 870.105 1083.55 864.256C1078.2 858.239 1074.1 850.969 1071.26 842.446C1068.59 833.922 1067.25 824.396 1067.25 813.867C1067.25 803.505 1068.59 794.146 1071.26 785.789C1073.94 777.266 1077.86 769.996 1083.04 763.979C1088.39 757.963 1094.91 753.367 1102.6 750.191C1110.29 746.849 1119.06 745.177 1128.92 745.177C1139.78 745.177 1149.06 747.016 1156.75 750.693C1164.6 754.369 1170.95 759.3 1175.8 765.483C1180.81 771.667 1184.41 778.854 1186.58 787.043C1188.92 795.065 1190.09 803.505 1190.09 812.363V823.393H1105.61V825.399C1105.61 834.089 1107.95 841.025 1112.63 846.206C1117.31 851.22 1124.66 853.727 1134.69 853.727C1142.38 853.727 1148.64 852.223 1153.49 849.214C1158.34 846.039 1162.85 842.279 1167.03 837.933L1185.58 860.997C1179.73 867.849 1172.04 873.197 1162.51 877.041C1153.15 880.885 1142.46 882.807 1130.43 882.807ZM1129.67 772.503C1122.15 772.503 1116.22 775.01 1111.87 780.024C1107.7 784.87 1105.61 791.388 1105.61 799.578V801.583H1151.73V799.327C1151.73 791.305 1149.9 784.87 1146.22 780.024C1142.71 775.01 1137.19 772.503 1129.67 772.503ZM1234.18 882.556C1226.66 882.556 1221.06 880.718 1217.38 877.041C1213.87 873.197 1212.12 868.351 1212.12 862.501V857.487C1212.12 851.638 1213.87 846.875 1217.38 843.198C1221.06 839.354 1226.66 837.432 1234.18 837.432C1241.7 837.432 1247.22 839.354 1250.73 843.198C1254.4 846.875 1256.24 851.638 1256.24 857.487V862.501C1256.24 868.351 1254.4 873.197 1250.73 877.041C1247.22 880.718 1241.7 882.556 1234.18 882.556Z" fill="#FF4B33"/>
</svg>
