<svg width="1449" height="1090" viewBox="0 0 1449 1090" fill="none" xmlns="http://www.w3.org/2000/svg">
<rect x="6" y="6" width="1437.33" height="1078" fill="#FF4B33"/>
<rect x="1084" y="724.666" width="359.333" height="359.333" stroke="#F33C23" stroke-width="10.78"/>
<rect x="724.667" y="724.666" width="359.333" height="359.333" stroke="#F33C23" stroke-width="10.78"/>
<rect x="365.333" y="724.666" width="359.333" height="359.333" stroke="#F33C23" stroke-width="10.78"/>
<rect x="6" y="724.666" width="359.333" height="359.333" stroke="#F33C23" stroke-width="10.78"/>
<rect x="1084" y="365.334" width="359.333" height="359.333" stroke="#F33C23" stroke-width="10.78"/>
<rect x="724.667" y="365.334" width="359.333" height="359.333" stroke="#F33C23" stroke-width="10.78"/>
<rect x="365.333" y="365.334" width="359.333" height="359.333" stroke="#F33C23" stroke-width="10.78"/>
<rect x="6" y="365.334" width="359.333" height="359.333" stroke="#F33C23" stroke-width="10.78"/>
<rect x="1084" y="6" width="359.333" height="359.333" stroke="#F33C23" stroke-width="10.78"/>
<rect x="724.667" y="6" width="359.333" height="359.333" stroke="#F33C23" stroke-width="10.78"/>
<rect x="365.333" y="6" width="359.333" height="359.333" stroke="#F33C23" stroke-width="10.78"/>
<rect x="6" y="6" width="359.333" height="359.333" stroke="#F33C23" stroke-width="10.78"/>
<path d="M285.128 230.174L303.222 327.45H308.144L323.922 230.174H363.295L379.074 327.45H383.995L402.09 230.174H420.039L400.787 332.227H362.282L346.07 234.951H341.148L324.935 332.227H286.431L267.178 230.174H285.128ZM422.462 295.025C422.462 287.401 424.006 280.839 427.094 275.338C430.278 269.741 434.669 265.495 440.266 262.599C445.864 259.608 452.281 258.112 459.519 258.112C466.757 258.112 473.126 259.56 478.627 262.455C484.127 265.253 488.422 269.306 491.51 274.614C494.598 279.922 496.142 286.243 496.142 293.577V299.657H440.122C440.315 305.35 442.148 309.934 445.622 313.408C449.193 316.786 454.549 318.475 461.69 318.475C466.612 318.475 470.665 317.462 473.85 315.435C477.034 313.408 479.109 310.513 480.074 306.75H498.747C497.975 310.803 496.142 314.904 493.247 319.054C490.448 323.204 486.347 326.678 480.943 329.476C475.635 332.275 469.217 333.674 461.69 333.674C453.005 333.674 445.719 331.937 439.832 328.463C433.946 324.989 429.555 320.357 426.66 314.566C423.861 308.68 422.462 302.166 422.462 295.025ZM478.482 288.366C478.482 284.12 476.889 280.597 473.705 277.799C470.617 274.904 465.888 273.456 459.519 273.456C455.273 273.456 451.654 274.132 448.662 275.483C445.767 276.834 443.596 278.619 442.148 280.839C440.797 283.058 440.122 285.567 440.122 288.366H478.482ZM598.041 240.597C594.374 240.5 591.672 241.61 589.935 243.926C588.198 246.242 587.33 249.668 587.33 254.204V332.227H568.801V253.625C568.801 244.264 571.406 236.93 576.618 231.622C581.829 226.218 589.646 223.805 600.068 224.384L626.558 225.832V242.044L598.041 240.597ZM554.036 316.014H607.306V332.227H554.036V316.014ZM607.306 316.014H621.636V274.759L554.036 275.772V259.56L628.874 258.112C632.638 258.016 635.436 258.932 637.27 260.862C639.2 262.696 640.165 265.543 640.165 269.403V316.014H660.286V332.227H607.306V316.014ZM713.013 274.325C708.284 274.325 704.231 275.386 700.854 277.509C697.476 279.536 694.822 282.72 692.892 287.063C691.058 291.309 690.142 296.713 690.142 303.276V332.227H671.468V259.56H690.142V269.837L686.812 280.983H691.589C693.133 274.132 696.27 268.631 700.998 264.481C705.727 260.235 711.807 258.112 719.237 258.112C728.309 258.112 735.353 260.959 740.372 266.653C745.39 272.25 747.899 280.356 747.899 290.971V332.227H729.37V293.722C729.37 286.774 728.067 281.804 725.462 278.812C722.953 275.82 718.803 274.325 713.013 274.325ZM841.256 225.832H822.582V266.508L825.912 277.654H821.135C819.108 271.767 815.779 267.039 811.147 263.468C806.514 259.897 800.193 258.112 792.184 258.112C785.332 258.112 779.445 259.801 774.524 263.178C769.602 266.46 765.838 270.947 763.233 276.641C760.724 282.334 759.469 288.752 759.469 295.893C759.469 302.938 760.724 309.355 763.233 315.145C765.838 320.839 769.602 325.375 774.524 328.752C779.542 332.034 785.428 333.674 792.184 333.674C800.193 333.674 806.514 331.937 811.147 328.463C815.779 324.892 819.108 320.164 821.135 314.277H825.912L822.582 325.278V332.227H841.256V225.832ZM822.582 295.893C822.582 300.718 821.665 304.771 819.832 308.052C817.998 311.237 815.393 313.601 812.015 315.145C808.637 316.69 804.681 317.462 800.145 317.462C795.513 317.462 791.556 316.69 788.275 315.145C785.091 313.601 782.582 311.237 780.748 308.052C779.011 304.868 778.142 300.815 778.142 295.893C778.142 290.971 779.011 286.918 780.748 283.734C782.582 280.549 785.091 278.185 788.275 276.641C791.556 275.097 795.513 274.325 800.145 274.325C804.681 274.325 808.637 275.097 812.015 276.641C815.393 278.185 817.998 280.549 819.832 283.734C821.665 286.918 822.582 290.971 822.582 295.893ZM958.154 332.227L924.571 333.674C920.904 333.771 918.105 332.854 916.175 330.924C914.245 328.994 913.28 326.147 913.28 322.383V243.926L931.954 238.136V317.462L958.154 316.014V332.227ZM955.259 259.56V275.772H896.489V259.56H955.259ZM990.395 225.832V259.56H971.722V225.832H990.395ZM1013.27 274.325C1008.54 274.325 1004.48 275.386 1001.11 277.509C997.729 279.536 995.075 282.72 993.145 287.063C991.312 291.309 990.395 296.713 990.395 303.276V332.227H971.722V259.56H990.395V269.837L987.066 280.983H991.842C993.387 274.132 996.523 268.631 1001.25 264.481C1005.98 260.235 1012.06 258.112 1019.49 258.112C1028.56 258.112 1035.61 260.959 1040.62 266.653C1045.64 272.25 1048.15 280.356 1048.15 290.971V332.227H1029.62V293.722C1029.62 286.774 1028.32 281.804 1025.72 278.812C1023.21 275.82 1019.06 274.325 1013.27 274.325ZM1059.72 295.025C1059.72 287.401 1061.27 280.839 1064.35 275.338C1067.54 269.741 1071.93 265.495 1077.53 262.599C1083.12 259.608 1089.54 258.112 1096.78 258.112C1104.02 258.112 1110.39 259.56 1115.89 262.455C1121.39 265.253 1125.68 269.306 1128.77 274.614C1131.86 279.922 1133.4 286.243 1133.4 293.577V299.657H1077.38C1077.58 305.35 1079.41 309.934 1082.88 313.408C1086.45 316.786 1091.81 318.475 1098.95 318.475C1103.87 318.475 1107.93 317.462 1111.11 315.435C1114.29 313.408 1116.37 310.513 1117.33 306.75H1136.01C1135.24 310.803 1133.4 314.904 1130.51 319.054C1127.71 323.204 1123.61 326.678 1118.2 329.476C1112.9 332.275 1106.48 333.674 1098.95 333.674C1090.27 333.674 1082.98 331.937 1077.09 328.463C1071.21 324.989 1066.82 320.357 1063.92 314.566C1061.12 308.68 1059.72 302.166 1059.72 295.025ZM1115.74 288.366C1115.74 284.12 1114.15 280.597 1110.97 277.799C1107.88 274.904 1103.15 273.456 1096.78 273.456C1092.53 273.456 1088.91 274.132 1085.92 275.483C1083.03 276.834 1080.86 278.619 1079.41 280.839C1078.06 283.058 1077.38 285.567 1077.38 288.366H1115.74ZM106.387 391.832V425.56H87.7132V391.832H106.387ZM129.258 440.325C124.529 440.325 120.476 441.386 117.098 443.509C113.721 445.536 111.067 448.72 109.137 453.063C107.303 457.309 106.387 462.713 106.387 469.276V498.227H87.7132V425.56H106.387V435.837L103.057 446.983H107.834C109.378 440.132 112.515 434.631 117.243 430.481C121.972 426.235 128.052 424.112 135.482 424.112C144.554 424.112 151.598 426.959 156.617 432.653C161.635 438.25 164.144 446.356 164.144 456.971V498.227H145.615V459.722C145.615 452.774 144.312 447.804 141.707 444.812C139.198 441.82 135.048 440.325 129.258 440.325ZM212.192 483.462C216.921 483.462 220.974 482.448 224.352 480.422C227.729 478.299 230.335 475.114 232.168 470.868C234.098 466.525 235.063 461.073 235.063 454.511V425.56H253.737V498.227H235.063V487.949L238.393 476.803H233.616C232.072 483.655 228.936 489.204 224.207 493.45C219.478 497.599 213.399 499.674 205.968 499.674C196.896 499.674 189.852 496.876 184.834 491.278C179.815 485.585 177.306 477.43 177.306 466.815V425.56H195.835V464.064C195.835 471.013 197.089 475.983 199.599 478.974C202.204 481.966 206.402 483.462 212.192 483.462ZM305.149 440.325C300.902 440.325 297.38 441.531 294.581 443.943C291.879 446.356 289.901 449.782 288.647 454.221C287.392 458.564 286.765 463.871 286.765 470.144V498.227H268.091V425.56H286.765V434.969L283.435 445.97H288.212C289.756 439.022 292.458 433.666 296.319 429.902C300.275 426.042 305.776 424.112 312.821 424.112C320.83 424.112 326.572 427.104 330.046 433.087C333.521 439.07 335.258 447.128 335.258 457.261V498.227H317.598V459.287C317.598 454.559 317.212 450.843 316.439 448.141C315.764 445.439 314.509 443.461 312.676 442.206C310.939 440.952 308.43 440.325 305.149 440.325ZM354.655 440.325C350.409 440.325 346.886 441.531 344.088 443.943C341.386 446.356 339.407 449.782 338.153 454.221C336.898 458.564 336.271 463.871 336.271 470.144V498.227H317.887L333.955 445.97H337.863C339.407 439.022 342.109 433.666 345.969 429.902C349.83 426.042 355.282 424.112 362.327 424.112C370.433 424.112 376.368 427.152 380.132 433.232C383.895 439.311 385.777 447.321 385.777 457.261V498.227H367.104V459.287C367.104 454.559 366.718 450.843 365.946 448.141C365.27 445.439 364.016 443.461 362.182 442.206C360.445 440.952 357.936 440.325 354.655 440.325ZM398.359 478.25C398.359 471.978 400.434 467.008 404.584 463.341C408.83 459.674 415.778 457.261 425.429 456.103L450.616 453.063C450.519 448.527 449.024 445.15 446.129 442.93C443.33 440.614 439.229 439.456 433.824 439.456C428.71 439.456 424.608 440.614 421.52 442.93C418.529 445.15 417.033 448.527 417.033 453.063H399.373C399.373 447.466 400.82 442.496 403.715 438.153C406.61 433.714 410.664 430.288 415.875 427.876C421.086 425.367 427.069 424.112 433.824 424.112C440.676 424.112 446.756 425.367 452.063 427.876C457.468 430.385 461.666 434.148 464.657 439.167C467.745 444.088 469.289 450.168 469.289 457.406V482.014H479.856V498.227H465.091C461.907 498.227 459.446 497.358 457.709 495.621C456.068 493.884 455.248 491.471 455.248 488.383V485.922L458.143 477.671H453.221C451.677 484.33 448.638 489.686 444.102 493.739C439.566 497.696 432.859 499.674 423.981 499.674C417.226 499.674 411.966 498.516 408.203 496.2C404.439 493.787 401.834 490.989 400.386 487.804C399.035 484.62 398.359 481.435 398.359 478.25ZM417.033 475.066C417.033 477.864 417.95 479.987 419.783 481.435C421.713 482.786 424.222 483.462 427.31 483.462C431.943 483.462 435.996 482.69 439.47 481.145C443.04 479.505 445.791 477.285 447.721 474.487C449.651 471.592 450.616 468.214 450.616 464.354L428.758 467.104C424.512 467.587 421.472 468.407 419.638 469.565C417.901 470.723 417.033 472.557 417.033 475.066ZM531.857 440.325C527.129 440.325 523.076 441.386 519.698 443.509C516.32 445.536 513.666 448.72 511.736 453.063C509.903 457.309 508.986 462.713 508.986 469.276V498.227H490.313V425.56H508.986V435.837L505.657 446.983H510.434C511.978 440.132 515.114 434.631 519.843 430.481C524.571 426.235 530.651 424.112 538.082 424.112C547.153 424.112 554.198 426.959 559.216 432.653C564.234 438.25 566.743 446.356 566.743 456.971V498.227H548.215V459.722C548.215 452.774 546.912 447.804 544.306 444.812C541.797 441.82 537.648 440.325 531.857 440.325ZM691.55 478.685C691.55 485.054 689.041 490.169 684.023 494.029C679.101 497.792 671.043 499.674 659.849 499.674C647.497 499.674 638.329 497.262 632.346 492.436C626.459 487.515 623.515 480.615 623.515 471.736H642.189C642.189 476.176 643.636 479.553 646.531 481.869C649.427 484.185 654.01 485.343 660.283 485.343C664.433 485.343 667.569 484.813 669.692 483.751C671.815 482.593 672.877 480.808 672.877 478.395C672.877 476.658 672.346 475.259 671.285 474.197C670.223 473.136 668.727 472.219 666.797 471.447C664.964 470.675 662.02 469.662 657.967 468.407L654.927 467.394L651.164 466.091C645.952 464.45 641.658 462.858 638.28 461.314C634.999 459.674 632.249 457.454 630.029 454.655C627.906 451.857 626.845 448.334 626.845 444.088C626.845 437.912 629.45 433.039 634.662 429.468C639.873 425.897 647.159 424.112 656.52 424.112C667.617 424.112 675.82 426.525 681.128 431.35C686.436 436.175 689.089 442.303 689.089 449.734H670.416C670.416 446.163 669.21 443.413 666.797 441.483C664.481 439.456 661.007 438.443 656.375 438.443C652.997 438.443 650.343 438.925 648.413 439.89C646.483 440.855 645.518 442.399 645.518 444.523C645.518 446.742 646.724 448.527 649.137 449.878C651.55 451.229 655.796 452.822 661.875 454.655C662.069 454.752 662.31 454.848 662.599 454.945C662.889 455.041 663.178 455.138 663.468 455.234C663.854 455.427 664.24 455.62 664.626 455.813C665.108 455.91 665.543 456.006 665.929 456.103C671.719 457.936 676.303 459.625 679.68 461.169C683.058 462.713 685.857 464.933 688.076 467.828C690.392 470.627 691.55 474.246 691.55 478.685ZM700.592 461.893C700.592 454.173 702.329 447.466 705.803 441.772C709.277 436.078 714.006 431.736 719.989 428.744C726.069 425.656 732.92 424.112 740.544 424.112C748.264 424.112 755.116 425.656 761.099 428.744C767.082 431.736 771.763 436.078 775.14 441.772C778.615 447.466 780.352 454.173 780.352 461.893C780.352 469.613 778.615 476.32 775.14 482.014C771.763 487.708 767.082 492.099 761.099 495.187C755.116 498.178 748.264 499.674 740.544 499.674C732.92 499.674 726.069 498.178 719.989 495.187C713.909 492.099 709.132 487.708 705.658 482.014C702.281 476.32 700.592 469.613 700.592 461.893ZM719.265 461.893C719.265 466.332 720.085 470.192 721.726 473.473C723.463 476.658 725.924 479.119 729.108 480.856C732.293 482.593 736.105 483.462 740.544 483.462C744.983 483.462 748.795 482.593 751.98 480.856C755.164 479.119 757.577 476.658 759.217 473.473C760.955 470.192 761.823 466.332 761.823 461.893C761.823 457.454 760.955 453.642 759.217 450.457C757.577 447.176 755.164 444.667 751.98 442.93C748.795 441.193 744.983 440.325 740.544 440.325C736.105 440.325 732.293 441.193 729.108 442.93C725.924 444.667 723.463 447.176 721.726 450.457C720.085 453.642 719.265 457.454 719.265 461.893ZM786.789 482.014H807.054V407.031L790.697 408.044V391.832L814.147 390.674C817.911 390.481 820.758 391.349 822.688 393.279C824.714 395.209 825.728 398.104 825.728 401.965V482.014H845.849V498.227H786.789V482.014ZM889.176 483.462C893.904 483.462 897.957 482.448 901.335 480.422C904.713 478.299 907.318 475.114 909.152 470.868C911.082 466.525 912.047 461.073 912.047 454.511V425.56H930.72V498.227H912.047V487.949L915.376 476.803H910.599C909.055 483.655 905.919 489.204 901.19 493.45C896.462 497.599 890.382 499.674 882.951 499.674C873.88 499.674 866.835 496.876 861.817 491.278C856.799 485.585 854.29 477.43 854.29 466.815V425.56H872.818V464.064C872.818 471.013 874.073 475.983 876.582 478.974C879.188 481.966 883.385 483.462 889.176 483.462ZM1002.47 498.227L968.888 499.674C965.221 499.771 962.422 498.854 960.492 496.924C958.562 494.994 957.597 492.147 957.597 488.383V409.926L976.271 404.136V483.462L1002.47 482.014V498.227ZM999.576 425.56V441.772H940.806V425.56H999.576ZM1040.37 416.73C1036.51 416.73 1033.47 415.765 1031.25 413.834C1029.12 411.808 1028.06 409.106 1028.06 405.728C1028.06 402.351 1029.17 399.697 1031.39 397.767C1033.61 395.74 1036.6 394.727 1040.37 394.727C1044.13 394.727 1047.12 395.74 1049.34 397.767C1051.66 399.697 1052.82 402.351 1052.82 405.728C1052.82 409.009 1051.66 411.663 1049.34 413.69C1047.12 415.716 1044.13 416.73 1040.37 416.73ZM1012.72 482.014H1033.27V440.759L1016.63 441.772V425.56L1039.79 424.112C1043.55 423.919 1046.35 424.788 1048.18 426.718C1050.11 428.551 1051.08 431.302 1051.08 434.969V482.014H1071.63V498.227H1012.72V482.014ZM1077.32 461.893C1077.32 454.173 1079.06 447.466 1082.53 441.772C1086.01 436.078 1090.74 431.736 1096.72 428.744C1102.8 425.656 1109.65 424.112 1117.27 424.112C1124.99 424.112 1131.85 425.656 1137.83 428.744C1143.81 431.736 1148.49 436.078 1151.87 441.772C1155.34 447.466 1157.08 454.173 1157.08 461.893C1157.08 469.613 1155.34 476.32 1151.87 482.014C1148.49 487.708 1143.81 492.099 1137.83 495.187C1131.85 498.178 1124.99 499.674 1117.27 499.674C1109.65 499.674 1102.8 498.178 1096.72 495.187C1090.64 492.099 1085.86 487.708 1082.39 482.014C1079.01 476.32 1077.32 469.613 1077.32 461.893ZM1096 461.893C1096 466.332 1096.82 470.192 1098.46 473.473C1100.19 476.658 1102.65 479.119 1105.84 480.856C1109.02 482.593 1112.84 483.462 1117.27 483.462C1121.71 483.462 1125.53 482.593 1128.71 480.856C1131.89 479.119 1134.31 476.658 1135.95 473.473C1137.68 470.192 1138.55 466.332 1138.55 461.893C1138.55 457.454 1137.68 453.642 1135.95 450.457C1134.31 447.176 1131.89 444.667 1128.71 442.93C1125.53 441.193 1121.71 440.325 1117.27 440.325C1112.84 440.325 1109.02 441.193 1105.84 442.93C1102.65 444.667 1100.19 447.176 1098.46 450.457C1096.82 453.642 1096 457.454 1096 461.893ZM1211.24 440.325C1206.52 440.325 1202.46 441.386 1199.08 443.509C1195.71 445.536 1193.05 448.72 1191.12 453.063C1189.29 457.309 1188.37 462.713 1188.37 469.276V498.227H1169.7V425.56H1188.37V435.837L1185.04 446.983H1189.82C1191.36 440.132 1194.5 434.631 1199.23 430.481C1203.96 426.235 1210.04 424.112 1217.47 424.112C1226.54 424.112 1233.58 426.959 1238.6 432.653C1243.62 438.25 1246.13 446.356 1246.13 456.971V498.227H1227.6V459.722C1227.6 452.774 1226.3 447.804 1223.69 444.812C1221.18 441.82 1217.03 440.325 1211.24 440.325ZM1324.29 478.685C1324.29 485.054 1321.78 490.169 1316.76 494.029C1311.84 497.792 1303.78 499.674 1292.59 499.674C1280.23 499.674 1271.07 497.262 1265.08 492.436C1259.2 487.515 1256.25 480.615 1256.25 471.736H1274.93C1274.93 476.176 1276.37 479.553 1279.27 481.869C1282.16 484.185 1286.75 485.343 1293.02 485.343C1297.17 485.343 1300.31 484.813 1302.43 483.751C1304.55 482.593 1305.61 480.808 1305.61 478.395C1305.61 476.658 1305.08 475.259 1304.02 474.197C1302.96 473.136 1301.46 472.219 1299.53 471.447C1297.7 470.675 1294.76 469.662 1290.7 468.407L1287.66 467.394L1283.9 466.091C1278.69 464.45 1274.4 462.858 1271.02 461.314C1267.74 459.674 1264.99 457.454 1262.77 454.655C1260.64 451.857 1259.58 448.334 1259.58 444.088C1259.58 437.912 1262.19 433.039 1267.4 429.468C1272.61 425.897 1279.9 424.112 1289.26 424.112C1300.35 424.112 1308.56 426.525 1313.86 431.35C1319.17 436.175 1321.83 442.303 1321.83 449.734H1303.15C1303.15 446.163 1301.95 443.413 1299.53 441.483C1297.22 439.456 1293.74 438.443 1289.11 438.443C1285.73 438.443 1283.08 438.925 1281.15 439.89C1279.22 440.855 1278.26 442.399 1278.26 444.523C1278.26 446.742 1279.46 448.527 1281.87 449.878C1284.29 451.229 1288.53 452.822 1294.61 454.655C1294.81 454.752 1295.05 454.848 1295.34 454.945C1295.63 455.041 1295.92 455.138 1296.2 455.234C1296.59 455.427 1296.98 455.62 1297.36 455.813C1297.85 455.91 1298.28 456.006 1298.67 456.103C1304.46 457.936 1309.04 459.625 1312.42 461.169C1315.79 462.713 1318.59 464.933 1320.81 467.828C1323.13 470.627 1324.29 474.246 1324.29 478.685ZM371.713 664.227L338.13 665.674C334.463 665.771 331.664 664.854 329.734 662.924C327.804 660.994 326.839 658.147 326.839 654.383V575.926L345.513 570.136V649.462L371.713 648.014V664.227ZM368.818 591.56V607.772H310.048V591.56H368.818ZM378.993 627.893C378.993 620.173 380.73 613.466 384.204 607.772C387.678 602.078 392.407 597.736 398.39 594.744C404.47 591.656 411.321 590.112 418.945 590.112C426.665 590.112 433.517 591.656 439.5 594.744C445.484 597.736 450.164 602.078 453.542 607.772C457.016 613.466 458.753 620.173 458.753 627.893C458.753 635.613 457.016 642.32 453.542 648.014C450.164 653.708 445.484 658.099 439.5 661.187C433.517 664.178 426.665 665.674 418.945 665.674C411.321 665.674 404.47 664.178 398.39 661.187C392.31 658.099 387.533 653.708 384.059 648.014C380.682 642.32 378.993 635.613 378.993 627.893ZM397.666 627.893C397.666 632.332 398.486 636.192 400.127 639.473C401.864 642.658 404.325 645.119 407.51 646.856C410.694 648.593 414.506 649.462 418.945 649.462C423.384 649.462 427.196 648.593 430.381 646.856C433.565 645.119 435.978 642.658 437.619 639.473C439.356 636.192 440.224 632.332 440.224 627.893C440.224 623.454 439.356 619.642 437.619 616.457C435.978 613.176 433.565 610.667 430.381 608.93C427.196 607.193 423.384 606.325 418.945 606.325C414.506 606.325 410.694 607.193 407.51 608.93C404.325 610.667 401.864 613.176 400.127 616.457C398.486 619.642 397.666 623.454 397.666 627.893ZM515.549 627.893C515.549 620.366 517.141 613.755 520.326 608.062C523.51 602.368 527.998 597.977 533.788 594.889C539.674 591.704 546.478 590.112 554.198 590.112C560.374 590.112 566.165 591.27 571.569 593.586C577.069 595.806 581.605 599.232 585.176 603.864C588.746 608.496 590.773 614.093 591.255 620.655H572.582C571.907 616.023 569.928 612.501 566.647 610.088C563.366 607.579 559.216 606.325 554.198 606.325C549.856 606.325 546.188 607.241 543.197 609.075C540.205 610.909 537.937 613.418 536.393 616.602C534.946 619.787 534.222 623.55 534.222 627.893C534.222 632.139 534.946 635.903 536.393 639.184C537.937 642.465 540.205 645.022 543.197 646.856C546.188 648.593 549.856 649.462 554.198 649.462C559.216 649.462 563.366 648.255 566.647 645.843C569.928 643.334 571.907 639.763 572.582 635.131H591.255C590.773 641.79 588.746 647.435 585.176 652.067C581.605 656.603 577.069 660.029 571.569 662.345C566.165 664.564 560.374 665.674 554.198 665.674C546.478 665.674 539.674 664.13 533.788 661.042C527.998 657.857 523.51 653.466 520.326 647.869C517.141 642.176 515.549 635.517 515.549 627.893ZM600.931 627.893C600.931 620.173 602.669 613.466 606.143 607.772C609.617 602.078 614.345 597.736 620.329 594.744C626.408 591.656 633.26 590.112 640.884 590.112C648.604 590.112 655.456 591.656 661.439 594.744C667.422 597.736 672.103 602.078 675.48 607.772C678.954 613.466 680.691 620.173 680.691 627.893C680.691 635.613 678.954 642.32 675.48 648.014C672.103 653.708 667.422 658.099 661.439 661.187C655.456 664.178 648.604 665.674 640.884 665.674C633.26 665.674 626.408 664.178 620.329 661.187C614.249 658.099 609.472 653.708 605.998 648.014C602.62 642.32 600.931 635.613 600.931 627.893ZM619.605 627.893C619.605 632.332 620.425 636.192 622.066 639.473C623.803 642.658 626.264 645.119 629.448 646.856C632.633 648.593 636.445 649.462 640.884 649.462C645.323 649.462 649.135 648.593 652.319 646.856C655.504 645.119 657.917 642.658 659.557 639.473C661.294 636.192 662.163 632.332 662.163 627.893C662.163 623.454 661.294 619.642 659.557 616.457C657.917 613.176 655.504 610.667 652.319 608.93C649.135 607.193 645.323 606.325 640.884 606.325C636.445 606.325 632.633 607.193 629.448 608.93C626.264 610.667 623.803 613.176 622.066 616.457C620.425 619.642 619.605 623.454 619.605 627.893ZM730.366 606.325C726.12 606.325 722.597 607.531 719.799 609.943C717.097 612.356 715.118 615.782 713.864 620.221C712.609 624.564 711.982 629.871 711.982 636.144V664.227H693.309V591.56H711.982V600.969L708.653 611.97H713.43C714.974 605.022 717.676 599.666 721.536 595.902C725.493 592.042 730.993 590.112 738.038 590.112C746.048 590.112 751.79 593.104 755.264 599.087C758.738 605.07 760.475 613.128 760.475 623.261V664.227H742.815V625.287C742.815 620.559 742.429 616.843 741.657 614.141C740.981 611.439 739.727 609.461 737.893 608.206C736.156 606.952 733.647 606.325 730.366 606.325ZM779.872 606.325C775.626 606.325 772.104 607.531 769.305 609.943C766.603 612.356 764.625 615.782 763.37 620.221C762.116 624.564 761.488 629.871 761.488 636.144V664.227H743.104L759.172 611.97H763.081C764.625 605.022 767.327 599.666 771.187 595.902C775.047 592.042 780.499 590.112 787.544 590.112C795.65 590.112 801.585 593.152 805.349 599.232C809.113 605.311 810.994 613.321 810.994 623.261V664.227H792.321V625.287C792.321 620.559 791.935 616.843 791.163 614.141C790.487 611.439 789.233 609.461 787.399 608.206C785.662 606.952 783.153 606.325 779.872 606.325ZM844.156 591.56V598.508L840.826 609.654H845.603C847.63 603.767 850.911 599.039 855.447 595.468C860.079 591.897 866.448 590.112 874.554 590.112C881.31 590.112 887.148 591.801 892.07 595.178C896.991 598.46 900.755 602.995 903.361 608.785C905.966 614.479 907.269 620.897 907.269 628.038C907.269 635.083 905.966 641.452 903.361 647.145C900.755 652.839 896.991 657.375 892.07 660.752C887.245 664.034 881.406 665.674 874.554 665.674C866.448 665.674 860.079 663.937 855.447 660.463C850.911 656.892 847.63 652.164 845.603 646.277H840.826L844.156 657.278V691.296H825.482V591.56H844.156ZM844.156 628.038C844.156 632.863 845.073 636.916 846.906 640.197C848.74 643.382 851.345 645.746 854.723 647.29C858.101 648.738 862.057 649.462 866.593 649.462C871.225 649.462 875.133 648.738 878.318 647.29C881.599 645.746 884.108 643.382 885.845 640.197C887.679 636.916 888.596 632.863 888.596 628.038C888.596 623.116 887.679 619.063 885.845 615.878C884.108 612.597 881.599 610.185 878.318 608.641C875.133 607.097 871.225 606.325 866.593 606.325C862.057 606.325 858.101 607.097 854.723 608.641C851.345 610.185 848.74 612.597 846.906 615.878C845.073 619.063 844.156 623.116 844.156 628.038ZM913.591 648.014H933.856V573.031L917.499 574.044V557.832L940.949 556.674C944.713 556.481 947.56 557.349 949.49 559.279C951.516 561.209 952.53 564.104 952.53 567.965V648.014H972.651V664.227H913.591V648.014ZM978.51 627.025C978.51 619.401 980.054 612.839 983.142 607.338C986.327 601.741 990.717 597.495 996.315 594.599C1001.91 591.608 1008.33 590.112 1015.57 590.112C1022.8 590.112 1029.17 591.56 1034.67 594.455C1040.18 597.253 1044.47 601.306 1047.56 606.614C1050.65 611.922 1052.19 618.243 1052.19 625.577V631.657H996.17C996.363 637.35 998.196 641.934 1001.67 645.408C1005.24 648.786 1010.6 650.475 1017.74 650.475C1022.66 650.475 1026.71 649.462 1029.9 647.435C1033.08 645.408 1035.16 642.513 1036.12 638.75H1054.8C1054.02 642.803 1052.19 646.904 1049.29 651.054C1046.5 655.204 1042.39 658.678 1036.99 661.476C1031.68 664.275 1025.27 665.674 1017.74 665.674C1009.05 665.674 1001.77 663.937 995.88 660.463C989.994 656.989 985.603 652.357 982.708 646.566C979.909 640.68 978.51 634.166 978.51 627.025ZM1034.53 620.366C1034.53 616.12 1032.94 612.597 1029.75 609.799C1026.66 606.904 1021.94 605.456 1015.57 605.456C1011.32 605.456 1007.7 606.132 1004.71 607.483C1001.82 608.834 999.644 610.619 998.196 612.839C996.845 615.058 996.17 617.567 996.17 620.366H1034.53ZM1082.31 630.209V625.432L1054.81 591.56H1076.96L1095.92 617.181L1114.74 591.56H1136.89L1109.38 625.432V630.209L1136.89 664.227H1114.74L1095.92 638.46L1076.96 664.227H1054.81L1082.31 630.209ZM315.026 793.893C315.026 786.366 316.619 779.755 319.803 774.062C322.988 768.368 327.475 763.977 333.266 760.889C339.152 757.704 345.956 756.112 353.676 756.112C359.852 756.112 365.642 757.27 371.047 759.586C376.547 761.806 381.083 765.232 384.653 769.864C388.224 774.496 390.251 780.093 390.733 786.655H372.06C371.384 782.023 369.406 778.501 366.125 776.088C362.844 773.579 358.694 772.325 353.676 772.325C349.333 772.325 345.666 773.241 342.675 775.075C339.683 776.909 337.415 779.418 335.871 782.602C334.424 785.787 333.7 789.55 333.7 793.893C333.7 798.139 334.424 801.903 335.871 805.184C337.415 808.465 339.683 811.022 342.675 812.856C345.666 814.593 349.333 815.462 353.676 815.462C358.694 815.462 362.844 814.255 366.125 811.843C369.406 809.334 371.384 805.763 372.06 801.131H390.733C390.251 807.79 388.224 813.435 384.653 818.067C381.083 822.603 376.547 826.029 371.047 828.345C365.642 830.564 359.852 831.674 353.676 831.674C345.956 831.674 339.152 830.13 333.266 827.042C327.475 823.857 322.988 819.466 319.803 813.869C316.619 808.176 315.026 801.517 315.026 793.893ZM421.412 723.832V757.56H402.739V723.832H421.412ZM444.283 772.325C439.555 772.325 435.502 773.386 432.124 775.509C428.746 777.536 426.093 780.72 424.163 785.063C422.329 789.309 421.412 794.713 421.412 801.276V830.227H402.739V757.56H421.412V767.837L418.083 778.983H422.86C424.404 772.132 427.54 766.631 432.269 762.481C436.997 758.235 443.077 756.112 450.508 756.112C459.579 756.112 466.624 758.959 471.642 764.653C476.66 770.25 479.169 778.356 479.169 788.971V830.227H460.641V791.722C460.641 784.774 459.338 779.804 456.732 776.812C454.223 773.82 450.074 772.325 444.283 772.325ZM491.729 810.25C491.729 803.978 493.804 799.008 497.954 795.341C502.2 791.674 509.148 789.261 518.798 788.103L543.986 785.063C543.889 780.527 542.393 777.15 539.498 774.93C536.7 772.614 532.598 771.456 527.194 771.456C522.079 771.456 517.978 772.614 514.89 774.93C511.898 777.15 510.402 780.527 510.402 785.063H492.742C492.742 779.466 494.19 774.496 497.085 770.153C499.98 765.714 504.033 762.288 509.244 759.876C514.456 757.367 520.439 756.112 527.194 756.112C534.046 756.112 540.125 757.367 545.433 759.876C550.837 762.385 555.035 766.148 558.027 771.167C561.115 776.088 562.659 782.168 562.659 789.406V814.014H573.226V830.227H558.461C555.277 830.227 552.816 829.358 551.079 827.621C549.438 825.884 548.618 823.471 548.618 820.383V817.922L551.513 809.671H546.591C545.047 816.33 542.007 821.686 537.472 825.739C532.936 829.696 526.229 831.674 517.351 831.674C510.596 831.674 505.336 830.516 501.572 828.2C497.809 825.787 495.203 822.989 493.756 819.804C492.405 816.62 491.729 813.435 491.729 810.25ZM510.402 807.066C510.402 809.864 511.319 811.987 513.153 813.435C515.083 814.786 517.592 815.462 520.68 815.462C525.312 815.462 529.365 814.69 532.84 813.145C536.41 811.505 539.16 809.285 541.091 806.487C543.021 803.592 543.986 800.214 543.986 796.354L522.128 799.104C517.881 799.587 514.842 800.407 513.008 801.565C511.271 802.723 510.402 804.557 510.402 807.066ZM580.329 814.014H600.595V739.031L584.238 740.044V723.832L607.688 722.674C611.452 722.481 614.298 723.349 616.228 725.279C618.255 727.209 619.268 730.104 619.268 733.965V814.014H639.389V830.227H580.329V814.014ZM648.183 814.014H668.449V739.031L652.092 740.044V723.832L675.542 722.674C679.305 722.481 682.152 723.349 684.082 725.279C686.109 727.209 687.122 730.104 687.122 733.965V814.014H707.243V830.227H648.183V814.014ZM713.102 793.025C713.102 785.401 714.646 778.839 717.734 773.338C720.919 767.741 725.31 763.495 730.907 760.599C736.504 757.608 742.922 756.112 750.16 756.112C757.397 756.112 763.766 757.56 769.267 760.455C774.768 763.253 779.062 767.306 782.15 772.614C785.238 777.922 786.783 784.243 786.783 791.577V797.657H730.762C730.955 803.35 732.789 807.934 736.263 811.408C739.834 814.786 745.19 816.475 752.331 816.475C757.253 816.475 761.306 815.462 764.49 813.435C767.675 811.408 769.75 808.513 770.715 804.75H789.388C788.616 808.803 786.783 812.904 783.887 817.054C781.089 821.204 776.987 824.678 771.583 827.476C766.276 830.275 759.858 831.674 752.331 831.674C743.646 831.674 736.36 829.937 730.473 826.463C724.586 822.989 720.195 818.357 717.3 812.566C714.502 806.68 713.102 800.166 713.102 793.025ZM769.122 786.366C769.122 782.12 767.53 778.597 764.346 775.799C761.257 772.904 756.529 771.456 750.16 771.456C745.913 771.456 742.295 772.132 739.303 773.483C736.408 774.834 734.236 776.619 732.789 778.839C731.438 781.058 730.762 783.567 730.762 786.366H769.122ZM843.49 772.325C838.762 772.325 834.708 773.386 831.331 775.509C827.953 777.536 825.299 780.72 823.369 785.063C821.536 789.309 820.619 794.713 820.619 801.276V830.227H801.946V757.56H820.619V767.837L817.29 778.983H822.066C823.611 772.132 826.747 766.631 831.476 762.481C836.204 758.235 842.284 756.112 849.715 756.112C858.786 756.112 865.831 758.959 870.849 764.653C875.867 770.25 878.376 778.356 878.376 788.971V830.227H859.848V791.722C859.848 784.774 858.545 779.804 855.939 776.812C853.43 773.82 849.28 772.325 843.49 772.325ZM888.533 784.918C888.533 778.646 890.27 773.338 893.744 768.995C897.218 764.653 901.898 761.42 907.785 759.297C913.768 757.174 920.524 756.112 928.051 756.112C933.359 756.112 938.328 756.739 942.961 757.994C947.593 759.152 951.694 761.034 955.265 763.639C957.967 761.13 960.621 759.49 963.226 758.718C965.928 757.946 969.161 757.56 972.925 757.56H979.294V773.772H973.938C972.201 773.772 970.705 773.917 969.451 774.206C968.293 774.496 967.183 775.027 966.121 775.799C966.99 776.957 967.714 778.501 968.293 780.431C968.968 782.361 969.306 784.484 969.306 786.8C969.306 793.266 966.845 798.863 961.923 803.592C957.002 808.224 950.198 812.229 941.513 815.606C932.828 818.984 921.826 822.265 908.509 825.45L910.391 823.568C918.111 820.576 926.459 818.598 935.433 817.633C944.505 816.571 952.273 817.392 958.739 820.094C965.205 822.699 968.437 827.717 968.437 835.148C968.437 841.903 965.88 846.922 960.765 850.203C955.651 853.484 947.931 855.607 937.605 856.572C927.375 857.633 912.659 858.164 893.454 858.164V841.952C909.86 841.952 921.778 841.759 929.209 841.373C936.736 840.987 942.044 840.07 945.132 838.622C948.22 837.175 949.764 834.907 949.764 831.819C949.764 828.055 947.448 825.739 942.816 824.871C938.184 823.906 932.635 823.857 926.169 824.726C919.8 825.594 911.983 826.994 902.719 828.924L900.692 829.358L898.231 818.212C907.013 816.861 914.058 815.655 919.366 814.593C922.743 813.918 926.121 813.242 929.498 812.566C932.876 811.891 936.012 811.119 938.907 810.25V805.473C930.319 808.272 922.164 809.43 914.444 808.948C906.724 808.465 900.451 806.197 895.626 802.144C890.897 798.091 888.533 792.349 888.533 784.918ZM907.206 785.932C907.206 790.467 909.04 793.845 912.707 796.064C916.374 798.284 921.826 799.394 929.064 799.394C936.302 799.394 941.706 798.284 945.277 796.064C948.847 793.845 950.633 790.467 950.633 785.932C950.633 782.843 949.812 780.334 948.172 778.404C946.628 776.378 944.215 774.882 940.934 773.917C937.749 772.855 933.793 772.325 929.064 772.325C924.239 772.325 920.186 772.855 916.905 773.917C913.72 774.882 911.308 776.378 909.667 778.404C908.026 780.334 907.206 782.843 907.206 785.932ZM985.224 793.025C985.224 785.401 986.768 778.839 989.857 773.338C993.041 767.741 997.432 763.495 1003.03 760.599C1008.63 757.608 1015.04 756.112 1022.28 756.112C1029.52 756.112 1035.89 757.56 1041.39 760.455C1046.89 763.253 1051.18 767.306 1054.27 772.614C1057.36 777.922 1058.9 784.243 1058.9 791.577V797.657H1002.88C1003.08 803.35 1004.91 807.934 1008.39 811.408C1011.96 814.786 1017.31 816.475 1024.45 816.475C1029.37 816.475 1033.43 815.462 1036.61 813.435C1039.8 811.408 1041.87 808.513 1042.84 804.75H1061.51C1060.74 808.803 1058.9 812.904 1056.01 817.054C1053.21 821.204 1049.11 824.678 1043.71 827.476C1038.4 830.275 1031.98 831.674 1024.45 831.674C1015.77 831.674 1008.48 829.937 1002.6 826.463C996.708 822.989 992.317 818.357 989.422 812.566C986.624 806.68 985.224 800.166 985.224 793.025ZM1041.24 786.366C1041.24 782.12 1039.65 778.597 1036.47 775.799C1033.38 772.904 1028.65 771.456 1022.28 771.456C1018.04 771.456 1014.42 772.132 1011.43 773.483C1008.53 774.834 1006.36 776.619 1004.91 778.839C1003.56 781.058 1002.88 783.567 1002.88 786.366H1041.24ZM1137.76 810.685C1137.76 817.054 1135.25 822.169 1130.23 826.029C1125.31 829.792 1117.25 831.674 1106.06 831.674C1093.71 831.674 1084.54 829.262 1078.56 824.436C1072.67 819.515 1069.73 812.615 1069.73 803.736H1088.4C1088.4 808.176 1089.85 811.553 1092.74 813.869C1095.64 816.185 1100.22 817.343 1106.49 817.343C1110.64 817.343 1113.78 816.813 1115.9 815.751C1118.02 814.593 1119.09 812.808 1119.09 810.395C1119.09 808.658 1118.56 807.259 1117.49 806.197C1116.43 805.136 1114.94 804.219 1113.01 803.447C1111.17 802.675 1108.23 801.662 1104.18 800.407L1101.14 799.394L1097.37 798.091C1092.16 796.45 1087.87 794.858 1084.49 793.314C1081.21 791.674 1078.46 789.454 1076.24 786.655C1074.12 783.857 1073.05 780.334 1073.05 776.088C1073.05 769.912 1075.66 765.039 1080.87 761.468C1086.08 757.897 1093.37 756.112 1102.73 756.112C1113.83 756.112 1122.03 758.525 1127.34 763.35C1132.65 768.175 1135.3 774.303 1135.3 781.734H1116.63C1116.63 778.163 1115.42 775.413 1113.01 773.483C1110.69 771.456 1107.22 770.443 1102.58 770.443C1099.21 770.443 1096.55 770.925 1094.62 771.89C1092.69 772.855 1091.73 774.399 1091.73 776.523C1091.73 778.742 1092.93 780.527 1095.35 781.878C1097.76 783.229 1102.01 784.822 1108.09 786.655C1108.28 786.752 1108.52 786.848 1108.81 786.945C1109.1 787.041 1109.39 787.138 1109.68 787.234C1110.06 787.427 1110.45 787.62 1110.84 787.813C1111.32 787.91 1111.75 788.006 1112.14 788.103C1117.93 789.936 1122.51 791.625 1125.89 793.169C1129.27 794.713 1132.07 796.933 1134.29 799.828C1136.6 802.627 1137.76 806.246 1137.76 810.685Z" fill="white"/>
</svg>
